<svg width="1414" height="316" viewBox="0 0 1414 316" fill="none" xmlns="http://www.w3.org/2000/svg">
<path d="M341.041 131.663H201.541H201.499C192.646 131.663 172.999 131.662 172.999 162.5C172.999 191.663 191.708 189.329 201.541 191.663H333.041C361.499 191.663 358.999 257 333.041 257H101.542C83.4995 257 56.0415 238.663 56.0415 158.163C56.0415 73 73.9995 56.5 101.542 56.5H1174.54C1191.04 56.5 1191.04 76 1191.04 98.6626C1191.04 117.733 1191.04 131.663 1174.54 131.663H913.042C873.042 131.663 866.042 165.996 867.542 183.163V285.663C867.542 323 920.042 323 920.042 285.663V208.163C920.042 189.363 938.375 183.663 947.542 183.163H1174.54C1226.5 183.163 1242.54 161 1242.54 98.6626C1242.54 19 1225.5 1.73382 1174.54 1.66258C816.875 1.16258 101.542 0.462582 101.542 1.66258C101.542 3.16258 0.5 -14.5 0.499512 158.163C0.499116 298 61.4995 315 101.542 315H341.041C418.499 315 422.499 131.663 341.041 131.663Z" fill="#04B388"/>
<path d="M437.041 285.663V115.163C450.241 87.1626 474.875 103.496 485.541 115.163C614.741 229.563 736.375 162.829 781.042 115.163C801.842 80.7626 825.708 100.829 835.042 115.163V285.663C835.042 324.5 781.042 323 781.042 285.663V191.663C669.842 282.863 537.708 229.663 485.541 191.663V285.663C485.541 322 437.041 325 437.041 285.663Z" fill="#04B388"/>
<path d="M341.041 131.663H201.541H201.499C192.646 131.663 172.999 131.662 172.999 162.5C172.999 191.663 191.708 189.329 201.541 191.663H333.041C361.499 191.663 358.999 257 333.041 257H101.542C83.4995 257 56.0415 238.663 56.0415 158.163C56.0415 73 73.9995 56.5 101.542 56.5H1174.54C1191.04 56.5 1191.04 76 1191.04 98.6626C1191.04 117.733 1191.04 131.663 1174.54 131.663H913.042C873.042 131.663 866.042 165.996 867.542 183.163V285.663C867.542 323 920.042 323 920.042 285.663V208.163C920.042 189.363 938.375 183.663 947.542 183.163H1174.54C1226.5 183.163 1242.54 161 1242.54 98.6626C1242.54 19 1225.5 1.73382 1174.54 1.66258C816.875 1.16258 101.542 0.462582 101.542 1.66258C101.542 3.16258 0.5 -14.5 0.499512 158.163C0.499116 298 61.4995 315 101.542 315H341.041C418.499 315 422.499 131.663 341.041 131.663Z" stroke="#04B388"/>
<path d="M437.041 285.663V115.163C450.241 87.1626 474.875 103.496 485.541 115.163C614.741 229.563 736.375 162.829 781.042 115.163C801.842 80.7626 825.708 100.829 835.042 115.163V285.663C835.042 324.5 781.042 323 781.042 285.663V191.663C669.842 282.863 537.708 229.663 485.541 191.663V285.663C485.541 322 437.041 325 437.041 285.663Z" stroke="#04B388"/>
<path d="M992.942 290.883C990.062 290.883 987.002 290.823 983.762 290.703C980.522 290.583 977.282 290.343 974.042 289.983C970.922 289.623 968.042 289.083 965.402 288.363C963.242 287.883 961.442 287.283 960.002 286.563C958.682 285.723 957.662 284.223 956.942 282.063C956.342 279.783 956.042 276.243 956.042 271.443C959.762 272.763 963.602 273.843 967.562 274.683C971.522 275.403 975.362 275.943 979.082 276.303C982.922 276.543 986.462 276.663 989.702 276.663C991.982 276.663 994.442 276.663 997.082 276.663C999.842 276.543 1002.48 276.243 1005 275.763C1007.52 275.163 1009.62 274.263 1011.3 273.063C1012.98 271.743 1013.82 269.943 1013.82 267.663C1013.82 264.903 1013.1 263.103 1011.66 262.263C1010.22 261.423 1008.3 261.003 1005.9 261.003H985.382C979.862 261.003 974.942 260.703 970.622 260.103C966.422 259.503 963.062 257.883 960.542 255.243C958.142 252.483 956.942 247.863 956.942 241.383C956.942 234.303 958.682 229.083 962.162 225.723C965.762 222.243 970.862 219.963 977.462 218.883C984.062 217.803 991.982 217.263 1001.22 217.263C1004.58 217.263 1008.48 217.323 1012.92 217.443C1017.48 217.563 1021.44 217.863 1024.8 218.343C1028.52 218.703 1031.4 219.303 1033.44 220.143C1035.6 220.863 1037.16 222.063 1038.12 223.743C1039.08 225.303 1039.56 227.763 1039.56 231.123V236.163C1038.84 234.963 1036.98 234.063 1033.98 233.463C1031.1 232.743 1027.56 232.263 1023.36 232.023C1019.28 231.783 1014.96 231.663 1010.4 231.663C1005.96 231.663 1001.82 231.663 997.982 231.663C995.342 231.663 992.882 231.843 990.602 232.203C988.442 232.443 986.702 233.163 985.382 234.363C984.062 235.443 983.402 237.243 983.402 239.763C983.402 241.683 983.822 243.123 984.662 244.083C985.502 244.923 986.642 245.463 988.082 245.703C989.522 245.943 991.142 246.063 992.942 246.063H1015.8C1020.84 246.063 1025.28 246.543 1029.12 247.503C1032.96 248.343 1035.9 250.263 1037.94 253.263C1039.98 256.143 1041 260.703 1041 266.943C1041 274.143 1038.96 279.423 1034.88 282.783C1030.8 286.143 1025.16 288.363 1017.96 289.443C1010.76 290.403 1002.42 290.883 992.942 290.883ZM1062.17 290.163C1057.97 290.163 1055.33 289.623 1054.25 288.543C1053.17 287.343 1052.63 285.123 1052.63 281.883V199.263H1079.45V220.143C1080.89 219.783 1082.57 219.483 1084.49 219.243C1086.53 219.003 1088.69 218.823 1090.97 218.703C1093.25 218.583 1095.41 218.523 1097.45 218.523C1105.61 218.523 1112.15 219.123 1117.07 220.323C1121.99 221.523 1125.71 223.383 1128.23 225.903C1130.75 228.423 1132.43 231.723 1133.27 235.803C1134.23 239.883 1134.71 244.863 1134.71 250.743V278.823C1134.71 282.063 1134.35 284.523 1133.63 286.203C1133.03 287.763 1131.89 288.843 1130.21 289.443C1128.53 289.923 1126.07 290.163 1122.83 290.163H1108.43V247.143C1108.43 242.583 1107.89 239.163 1106.81 236.883C1105.73 234.483 1103.99 232.923 1101.59 232.203C1099.31 231.363 1096.25 230.943 1092.41 230.943C1091.09 230.943 1089.59 231.003 1087.91 231.123C1086.35 231.243 1084.79 231.483 1083.23 231.843C1081.67 232.083 1080.41 232.383 1079.45 232.743V290.163H1062.17ZM1186.93 291.063C1178.53 291.063 1171.75 290.763 1166.59 290.163C1161.43 289.683 1157.41 288.663 1154.53 287.103C1151.77 285.543 1149.91 283.323 1148.95 280.443C1147.99 277.563 1147.51 273.843 1147.51 269.283C1147.51 263.163 1148.11 258.543 1149.31 255.423C1150.51 252.183 1152.61 249.963 1155.61 248.763C1158.61 247.563 1162.63 246.963 1167.67 246.963C1170.67 246.963 1174.09 247.023 1177.93 247.143C1181.89 247.143 1185.73 247.203 1189.45 247.323C1193.29 247.443 1196.59 247.683 1199.35 248.043C1202.23 248.283 1204.21 248.523 1205.29 248.763C1205.29 245.043 1204.93 242.103 1204.21 239.943C1203.61 237.783 1202.59 236.163 1201.15 235.083C1199.71 233.883 1197.79 233.103 1195.39 232.743C1192.99 232.383 1190.05 232.203 1186.57 232.203C1182.37 232.203 1178.17 232.263 1173.97 232.383C1169.89 232.503 1165.87 232.743 1161.91 233.103C1158.07 233.463 1154.53 233.883 1151.29 234.363V229.323C1151.29 226.083 1152.01 223.683 1153.45 222.123C1154.89 220.563 1156.87 219.543 1159.39 219.063C1162.15 218.463 1166.23 218.043 1171.63 217.803C1177.15 217.563 1183.09 217.443 1189.45 217.443C1197.49 217.443 1204.21 217.863 1209.61 218.703C1215.13 219.543 1219.45 221.043 1222.57 223.203C1225.69 225.363 1227.91 228.603 1229.23 232.923C1230.55 237.123 1231.21 242.763 1231.21 249.843V285.663C1229.29 287.463 1224.49 288.843 1216.81 289.803C1209.25 290.643 1199.29 291.063 1186.93 291.063ZM1186.75 279.903C1190.11 279.903 1192.93 279.843 1195.21 279.723C1197.61 279.483 1199.65 279.183 1201.33 278.823C1203.01 278.463 1204.33 278.043 1205.29 277.563V257.403C1203.97 257.043 1202.11 256.743 1199.71 256.503C1197.43 256.263 1195.09 256.083 1192.69 255.963C1190.29 255.843 1188.43 255.783 1187.11 255.783C1184.23 255.783 1181.89 256.023 1180.09 256.503C1178.29 256.983 1176.97 258.063 1176.13 259.743C1175.41 261.423 1175.05 264.003 1175.05 267.483C1175.05 270.483 1175.35 272.943 1175.95 274.863C1176.55 276.663 1177.69 277.983 1179.37 278.823C1181.05 279.543 1183.51 279.903 1186.75 279.903ZM1272.64 290.163H1253.2C1250.56 290.163 1248.64 289.503 1247.44 288.183C1246.24 286.863 1245.64 284.223 1245.64 280.263V221.943C1249 221.103 1253.86 220.203 1260.22 219.243C1266.7 218.283 1273.96 217.803 1282 217.803C1290.4 217.803 1297 218.283 1301.8 219.243C1306.72 220.203 1310.32 221.703 1312.6 223.743C1314.88 225.663 1316.32 228.183 1316.92 231.303C1317.64 234.303 1318 237.963 1318 242.283H1292.26V239.763C1292.26 236.883 1291.72 234.783 1290.64 233.463C1289.68 232.143 1288.48 231.303 1287.04 230.943C1285.6 230.583 1284.1 230.403 1282.54 230.403C1280.14 230.403 1278.04 230.643 1276.24 231.123C1274.56 231.603 1273.36 232.323 1272.64 233.283V290.163ZM1368.74 291.243C1360.34 291.243 1353.44 290.763 1348.04 289.803C1342.64 288.723 1338.38 286.923 1335.26 284.403C1332.14 281.883 1329.92 278.343 1328.6 273.783C1327.28 269.223 1326.62 263.283 1326.62 255.963C1326.62 246.603 1327.94 239.163 1330.58 233.643C1333.22 228.123 1337.78 224.103 1344.26 221.583C1350.86 219.063 1359.98 217.803 1371.62 217.803C1380.74 217.803 1388 218.763 1393.4 220.683C1398.8 222.603 1402.7 225.603 1405.1 229.683C1407.5 233.763 1408.7 238.983 1408.7 245.343V259.203H1358.66C1358.66 256.683 1359.2 254.583 1360.28 252.903C1361.48 251.103 1363.64 250.203 1366.76 250.203H1384.76L1384.58 246.423C1384.58 241.503 1383.56 237.843 1381.52 235.443C1379.6 232.923 1375.94 231.663 1370.54 231.663C1366.1 231.663 1362.62 232.383 1360.1 233.823C1357.7 235.143 1356.02 237.543 1355.06 241.023C1354.22 244.383 1353.8 249.243 1353.8 255.603C1353.8 261.363 1354.34 265.683 1355.42 268.563C1356.62 271.443 1358.72 273.423 1361.72 274.503C1364.72 275.463 1368.98 275.943 1374.5 275.943C1376.54 275.943 1379.3 275.883 1382.78 275.763C1386.26 275.643 1389.8 275.523 1393.4 275.403C1397.12 275.163 1400.36 274.983 1403.12 274.863C1406 274.623 1407.8 274.383 1408.52 274.143V277.383C1408.52 279.063 1408.22 280.863 1407.62 282.783C1407.14 284.583 1406.12 286.083 1404.56 287.283C1402.4 288.963 1398.38 290.043 1392.5 290.523C1386.74 291.003 1378.82 291.243 1368.74 291.243Z" fill="#F9A22B"/>
<circle cx="641.042" cy="277.663" r="28.5" fill="#F9A22B"/>
</svg>
