<svg width="1417" height="314" viewBox="0 0 1417 314" fill="none" xmlns="http://www.w3.org/2000/svg">
<path d="M344.5 131.5H205C196.167 131.5 178.2 136.8 177 158C175.8 179.2 195.167 189.167 205 191.5H336.5C367.7 205.9 349.5 228.833 336.5 238.5H105C89.8333 232.833 59.5 208.8 59.5 158C59.5 107.2 89.8333 74.1667 105 64H1178C1182.17 67.6667 1191.3 79.7 1194.5 98.5C1197.7 117.3 1184.83 128.333 1178 131.5H916.5C876.5 131.5 869.5 165.833 871 183V285.5C895.4 329.9 916.167 304 923.5 285.5V208C923.5 189.2 941.833 183.5 951 183H1178C1200.67 177.833 1246 153.7 1246 98.5C1246 43.3 1200.67 10.8333 1178 1.49998C820.333 0.999984 105 0.299984 105 1.49998C105 2.99998 3.99999 43 1.49999 158C-0.50001 250 69.6667 296 105 307.5H344.5C456.1 228.7 391 157.333 344.5 131.5Z" fill="#04B388"/>
<path d="M440.5 285.5V115C453.7 87 478.333 103.333 489 115C618.2 229.4 739.833 162.667 784.5 115C805.3 80.6 829.167 100.667 838.5 115V285.5C812.5 335.1 791.667 306.167 784.5 285.5V191.5C673.3 282.7 541.167 229.5 489 191.5V285.5C467.4 332.7 447.667 305.167 440.5 285.5Z" fill="#04B388"/>
<path d="M344.5 131.5H205C196.167 131.5 178.2 136.8 177 158C175.8 179.2 195.167 189.167 205 191.5H336.5C367.7 205.9 349.5 228.833 336.5 238.5H105C89.8333 232.833 59.5 208.8 59.5 158C59.5 107.2 89.8333 74.1667 105 64H1178C1182.17 67.6667 1191.3 79.7 1194.5 98.5C1197.7 117.3 1184.83 128.333 1178 131.5H916.5C876.5 131.5 869.5 165.833 871 183V285.5C895.4 329.9 916.167 304 923.5 285.5V208C923.5 189.2 941.833 183.5 951 183H1178C1200.67 177.833 1246 153.7 1246 98.5C1246 43.3 1200.67 10.8333 1178 1.49998C820.333 0.999984 105 0.299984 105 1.49998C105 2.99998 3.99999 43 1.49999 158C-0.50001 250 69.6667 296 105 307.5H344.5C456.1 228.7 391 157.333 344.5 131.5Z" stroke="#04B388"/>
<path d="M440.5 285.5V115C453.7 87 478.333 103.333 489 115C618.2 229.4 739.833 162.667 784.5 115C805.3 80.6 829.167 100.667 838.5 115V285.5C812.5 335.1 791.667 306.167 784.5 285.5V191.5C673.3 282.7 541.167 229.5 489 191.5V285.5C467.4 332.7 447.667 305.167 440.5 285.5Z" stroke="#04B388"/>
<path d="M996.4 290.72C993.52 290.72 990.46 290.66 987.22 290.54C983.98 290.42 980.74 290.18 977.5 289.82C974.38 289.46 971.5 288.92 968.86 288.2C966.7 287.72 964.9 287.12 963.46 286.4C962.14 285.56 961.12 284.06 960.4 281.9C959.8 279.62 959.5 276.08 959.5 271.28C963.22 272.6 967.06 273.68 971.02 274.52C974.98 275.24 978.82 275.78 982.54 276.14C986.38 276.38 989.92 276.5 993.16 276.5C995.44 276.5 997.9 276.5 1000.54 276.5C1003.3 276.38 1005.94 276.08 1008.46 275.6C1010.98 275 1013.08 274.1 1014.76 272.9C1016.44 271.58 1017.28 269.78 1017.28 267.5C1017.28 264.74 1016.56 262.94 1015.12 262.1C1013.68 261.26 1011.76 260.84 1009.36 260.84H988.84C983.32 260.84 978.4 260.54 974.08 259.94C969.88 259.34 966.52 257.72 964 255.08C961.6 252.32 960.4 247.7 960.4 241.22C960.4 234.14 962.14 228.92 965.62 225.56C969.22 222.08 974.32 219.8 980.92 218.72C987.52 217.64 995.44 217.1 1004.68 217.1C1008.04 217.1 1011.94 217.16 1016.38 217.28C1020.94 217.4 1024.9 217.7 1028.26 218.18C1031.98 218.54 1034.86 219.14 1036.9 219.98C1039.06 220.7 1040.62 221.9 1041.58 223.58C1042.54 225.14 1043.02 227.6 1043.02 230.96V236C1042.3 234.8 1040.44 233.9 1037.44 233.3C1034.56 232.58 1031.02 232.1 1026.82 231.86C1022.74 231.62 1018.42 231.5 1013.86 231.5C1009.42 231.5 1005.28 231.5 1001.44 231.5C998.8 231.5 996.34 231.68 994.06 232.04C991.9 232.28 990.16 233 988.84 234.2C987.52 235.28 986.86 237.08 986.86 239.6C986.86 241.52 987.28 242.96 988.12 243.92C988.96 244.76 990.1 245.3 991.54 245.54C992.98 245.78 994.6 245.9 996.4 245.9H1019.26C1024.3 245.9 1028.74 246.38 1032.58 247.34C1036.42 248.18 1039.36 250.1 1041.4 253.1C1043.44 255.98 1044.46 260.54 1044.46 266.78C1044.46 273.98 1042.42 279.26 1038.34 282.62C1034.26 285.98 1028.62 288.2 1021.42 289.28C1014.22 290.24 1005.88 290.72 996.4 290.72ZM1065.63 290C1061.43 290 1058.79 289.46 1057.71 288.38C1056.63 287.18 1056.09 284.96 1056.09 281.72V199.1H1082.91V219.98C1084.35 219.62 1086.03 219.32 1087.95 219.08C1089.99 218.84 1092.15 218.66 1094.43 218.54C1096.71 218.42 1098.87 218.36 1100.91 218.36C1109.07 218.36 1115.61 218.96 1120.53 220.16C1125.45 221.36 1129.17 223.22 1131.69 225.74C1134.21 228.26 1135.89 231.56 1136.73 235.64C1137.69 239.72 1138.17 244.7 1138.17 250.58V278.66C1138.17 281.9 1137.81 284.36 1137.09 286.04C1136.49 287.6 1135.35 288.68 1133.67 289.28C1131.99 289.76 1129.53 290 1126.29 290H1111.89V246.98C1111.89 242.42 1111.35 239 1110.27 236.72C1109.19 234.32 1107.45 232.76 1105.05 232.04C1102.77 231.2 1099.71 230.78 1095.87 230.78C1094.55 230.78 1093.05 230.84 1091.37 230.96C1089.81 231.08 1088.25 231.32 1086.69 231.68C1085.13 231.92 1083.87 232.22 1082.91 232.58V290H1065.63ZM1190.38 290.9C1181.98 290.9 1175.2 290.6 1170.04 290C1164.88 289.52 1160.86 288.5 1157.98 286.94C1155.22 285.38 1153.36 283.16 1152.4 280.28C1151.44 277.4 1150.96 273.68 1150.96 269.12C1150.96 263 1151.56 258.38 1152.76 255.26C1153.96 252.02 1156.06 249.8 1159.06 248.6C1162.06 247.4 1166.08 246.8 1171.12 246.8C1174.12 246.8 1177.54 246.86 1181.38 246.98C1185.34 246.98 1189.18 247.04 1192.9 247.16C1196.74 247.28 1200.04 247.52 1202.8 247.88C1205.68 248.12 1207.66 248.36 1208.74 248.6C1208.74 244.88 1208.38 241.94 1207.66 239.78C1207.06 237.62 1206.04 236 1204.6 234.92C1203.16 233.72 1201.24 232.94 1198.84 232.58C1196.44 232.22 1193.5 232.04 1190.02 232.04C1185.82 232.04 1181.62 232.1 1177.42 232.22C1173.34 232.34 1169.32 232.58 1165.36 232.94C1161.52 233.3 1157.98 233.72 1154.74 234.2V229.16C1154.74 225.92 1155.46 223.52 1156.9 221.96C1158.34 220.4 1160.32 219.38 1162.84 218.9C1165.6 218.3 1169.68 217.88 1175.08 217.64C1180.6 217.4 1186.54 217.28 1192.9 217.28C1200.94 217.28 1207.66 217.7 1213.06 218.54C1218.58 219.38 1222.9 220.88 1226.02 223.04C1229.14 225.2 1231.36 228.44 1232.68 232.76C1234 236.96 1234.66 242.6 1234.66 249.68V285.5C1232.74 287.3 1227.94 288.68 1220.26 289.64C1212.7 290.48 1202.74 290.9 1190.38 290.9ZM1190.2 279.74C1193.56 279.74 1196.38 279.68 1198.66 279.56C1201.06 279.32 1203.1 279.02 1204.78 278.66C1206.46 278.3 1207.78 277.88 1208.74 277.4V257.24C1207.42 256.88 1205.56 256.58 1203.16 256.34C1200.88 256.1 1198.54 255.92 1196.14 255.8C1193.74 255.68 1191.88 255.62 1190.56 255.62C1187.68 255.62 1185.34 255.86 1183.54 256.34C1181.74 256.82 1180.42 257.9 1179.58 259.58C1178.86 261.26 1178.5 263.84 1178.5 267.32C1178.5 270.32 1178.8 272.78 1179.4 274.7C1180 276.5 1181.14 277.82 1182.82 278.66C1184.5 279.38 1186.96 279.74 1190.2 279.74ZM1276.1 290H1256.66C1254.02 290 1252.1 289.34 1250.9 288.02C1249.7 286.7 1249.1 284.06 1249.1 280.1V221.78C1252.46 220.94 1257.32 220.04 1263.68 219.08C1270.16 218.12 1277.42 217.64 1285.46 217.64C1293.86 217.64 1300.46 218.12 1305.26 219.08C1310.18 220.04 1313.78 221.54 1316.06 223.58C1318.34 225.5 1319.78 228.02 1320.38 231.14C1321.1 234.14 1321.46 237.8 1321.46 242.12H1295.72V239.6C1295.72 236.72 1295.18 234.62 1294.1 233.3C1293.14 231.98 1291.94 231.14 1290.5 230.78C1289.06 230.42 1287.56 230.24 1286 230.24C1283.6 230.24 1281.5 230.48 1279.7 230.96C1278.02 231.44 1276.82 232.16 1276.1 233.12V290ZM1372.2 291.08C1363.8 291.08 1356.9 290.6 1351.5 289.64C1346.1 288.56 1341.84 286.76 1338.72 284.24C1335.6 281.72 1333.38 278.18 1332.06 273.62C1330.74 269.06 1330.08 263.12 1330.08 255.8C1330.08 246.44 1331.4 239 1334.04 233.48C1336.68 227.96 1341.24 223.94 1347.72 221.42C1354.32 218.9 1363.44 217.64 1375.08 217.64C1384.2 217.64 1391.46 218.6 1396.86 220.52C1402.26 222.44 1406.16 225.44 1408.56 229.52C1410.96 233.6 1412.16 238.82 1412.16 245.18V259.04H1362.12C1362.12 256.52 1362.66 254.42 1363.74 252.74C1364.94 250.94 1367.1 250.04 1370.22 250.04H1388.22L1388.04 246.26C1388.04 241.34 1387.02 237.68 1384.98 235.28C1383.06 232.76 1379.4 231.5 1374 231.5C1369.56 231.5 1366.08 232.22 1363.56 233.66C1361.16 234.98 1359.48 237.38 1358.52 240.86C1357.68 244.22 1357.26 249.08 1357.26 255.44C1357.26 261.2 1357.8 265.52 1358.88 268.4C1360.08 271.28 1362.18 273.26 1365.18 274.34C1368.18 275.3 1372.44 275.78 1377.96 275.78C1380 275.78 1382.76 275.72 1386.24 275.6C1389.72 275.48 1393.26 275.36 1396.86 275.24C1400.58 275 1403.82 274.82 1406.58 274.7C1409.46 274.46 1411.26 274.22 1411.98 273.98V277.22C1411.98 278.9 1411.68 280.7 1411.08 282.62C1410.6 284.42 1409.58 285.92 1408.02 287.12C1405.86 288.8 1401.84 289.88 1395.96 290.36C1390.2 290.84 1382.28 291.08 1372.2 291.08Z" fill="#F9A22B"/>
<circle cx="644.5" cy="277.5" r="28.5" fill="#F9A22B"/>
</svg>
