<svg width="4302" height="1196" viewBox="0 0 4302 1196" fill="none" xmlns="http://www.w3.org/2000/svg">
<path d="M514 512C531.333 512 545 518 555 530C565 542 570 558.667 570 580C570 585.333 569.667 591 569 597C568.333 602.333 567.333 607 566 611C552 607.667 536.667 605.667 520 605C516 634.333 505.333 665.333 488 698C470.667 730 449.667 760.333 425 789C400.333 817 373.333 841.667 344 863C314.667 884.333 285.667 898.667 257 906C167.667 904 102.333 880.667 61 836C20.3333 792 2.6226e-06 723 2.6226e-06 629C2.6226e-06 560.333 12.6667 494 38 430C63.3333 365.333 97 308 139 258C181 208 229 168 283 138C337.667 107.333 394.333 92 453 92C499 92 534.667 101.667 560 121C586 140.333 599 167.667 599 203C599 226.333 593.333 248 582 268C571.333 288 553.333 309.667 528 333C512.667 328.333 499.333 320.333 488 309C476.667 297 469.667 283.333 467 268C489.667 251.333 505.667 236 515 222C524.333 208 529 191.333 529 172C529 141.333 510.667 126 474 126C444 126 411.667 137.333 377 160C343 182 308.667 214 274 256C224.667 315.333 188.667 376.667 166 440C143.333 502.667 132 573.333 132 652C132 681.333 135 708 141 732C147 756 155 777 165 795C175 813 186.667 827.333 200 838C214 848.667 229 854.667 245 856C266.333 851.333 287.667 840.667 309 824C330.333 806.667 349.667 786.667 367 764C385 740.667 400 716 412 690C424.667 663.333 432.333 638 435 614C416.333 618 398.333 622 381 626C364.333 629.333 348.333 631 333 631C313 631 295.333 626 280 616C265.333 606 255.333 592.333 250 575C262 568.333 279.333 561.333 302 554C325.333 546.667 350 540 376 534C402 527.333 427.333 522 452 518C477.333 514 498 512 514 512ZM1184.39 523C1173.72 523.667 1160.72 530.667 1145.39 544C1130.06 556.667 1113.39 573.333 1095.39 594C1078.06 614 1059.72 636.333 1040.39 661C1021.72 685.667 1003.39 710.333 985.391 735C968.057 759 951.724 781.667 936.391 803C921.057 824.333 908.057 841.333 897.391 854C882.724 848 870.057 839.333 859.391 828C848.724 816 841.057 801.333 836.391 784C839.724 763.333 844.391 742 850.391 720C856.391 697.333 864.057 674 873.391 650C883.391 626 895.391 601 909.391 575C924.057 548.333 941.724 520.333 962.391 491C952.391 491.667 938.724 499 921.391 513C904.057 526.333 885.391 544 865.391 566C845.391 587.333 824.724 611.667 803.391 639C782.057 665.667 762.057 692 743.391 718C718.724 752.667 698.057 783 681.391 809C665.391 835 653.724 850.333 646.391 855C629.057 842.333 617.057 828.667 610.391 814C603.724 799.333 598.724 783 595.391 765C596.057 749 598.391 729 602.391 705C607.057 681 613.391 656.333 621.391 631C636.724 582.333 656.391 534 680.391 486C705.057 438 728.724 394 751.391 354C770.057 358 786.724 364.333 801.391 373C816.724 381.667 832.724 394.333 849.391 411C842.724 431.667 832.391 453.667 818.391 477C804.391 499.667 789.724 523.667 774.391 549C759.057 574.333 745.057 600.333 732.391 627C719.724 653.667 711.391 680.667 707.391 708C726.057 681.333 748.057 650.667 773.391 616C799.391 581.333 825.724 548.667 852.391 518C879.724 487.333 906.724 461.333 933.391 440C960.057 418.667 984.057 408 1005.39 408C1013.39 408 1022.06 409.333 1031.39 412C1040.72 414.667 1049.39 418 1057.39 422C1065.39 426 1072.06 430 1077.39 434C1082.72 437.333 1085.72 440 1086.39 442C1083.06 455.333 1075.06 473.667 1062.39 497C1050.39 519.667 1037.39 543.667 1023.39 569C1009.39 594.333 996.391 619 984.391 643C972.391 666.333 965.391 685 963.391 699C996.057 654.333 1026.72 614 1055.39 578C1084.06 541.333 1111.06 510 1136.39 484C1161.72 458 1185.06 438 1206.39 424C1228.39 410 1249.06 403 1268.39 403C1281.72 403 1294.06 406.667 1305.39 414C1317.39 420.667 1325.72 430.667 1330.39 444C1324.39 464 1314.39 488 1300.39 516C1287.06 544 1273.39 573.667 1259.39 605C1245.39 635.667 1232.72 666 1221.39 696C1210.72 726 1205.39 753 1205.39 777C1205.39 791 1207.39 800.333 1211.39 805C1215.39 809 1221.06 811 1228.39 811C1236.39 811 1243.72 809.667 1250.39 807C1257.72 803.667 1263.06 802 1266.39 802C1270.39 804.667 1272.72 808 1273.39 812C1274.06 816 1274.39 819.667 1274.39 823C1261.06 833.667 1247.39 842.333 1233.39 849C1219.39 856.333 1203.72 860 1186.39 860C1170.39 860 1157.06 857.333 1146.39 852C1136.39 846.667 1128.06 839.333 1121.39 830C1114.72 820.667 1110.06 810 1107.39 798C1104.72 786 1103.39 773 1103.39 759C1103.39 736.333 1106.39 714 1112.39 692C1118.39 669.333 1125.39 648 1133.39 628C1142.06 607.333 1151.06 588.333 1160.39 571C1169.72 553 1177.72 537 1184.39 523ZM1298.04 1161C1288.71 1158.33 1283.37 1148.33 1282.04 1131C1279.37 1122.33 1277.37 1112 1276.04 1100C1275.37 1088 1275.04 1074.33 1275.04 1059C1275.04 1045 1277.37 1025.67 1282.04 1001C1286.71 977 1293.04 949.667 1301.04 919C1309.71 888.333 1320.04 855.333 1332.04 820C1344.04 784 1357.37 747.667 1372.04 711C1390.04 665 1405.71 625.333 1419.04 592C1432.37 558 1443.37 528.667 1452.04 504C1461.37 479.333 1468.71 459 1474.04 443C1480.04 427 1484.71 413.333 1488.04 402C1490.71 394 1494.71 384.333 1500.04 373C1505.37 361.667 1511.37 350.333 1518.04 339C1525.37 327 1532.71 316 1540.04 306C1547.37 295.333 1554.04 287.333 1560.04 282C1583.37 285.333 1605.37 291.333 1626.04 300C1646.71 308.667 1659.37 317 1664.04 325C1654.71 333.667 1644.04 347.333 1632.04 366C1620.04 384 1608.37 404 1597.04 426C1585.71 447.333 1575.37 469.333 1566.04 492C1556.71 514.667 1549.71 534.667 1545.04 552C1551.71 540.667 1560.37 528.333 1571.04 515C1581.71 501.667 1598.04 483.333 1620.04 460C1644.71 434.667 1667.71 415.333 1689.04 402C1711.04 388 1730.04 381 1746.04 381C1771.37 381 1792.04 388 1808.04 402C1824.71 416 1833.04 434 1833.04 456C1833.04 504 1825.04 551.667 1809.04 599C1793.04 645.667 1770.04 688 1740.04 726C1728.71 740.667 1715.37 754.667 1700.04 768C1684.71 781.333 1668.71 793.333 1652.04 804C1635.37 814 1619.04 822 1603.04 828C1587.04 834 1572.71 837 1560.04 837C1548.04 837 1537.37 834.667 1528.04 830C1519.37 824.667 1513.37 818.333 1510.04 811C1536.04 795.667 1561.37 774.333 1586.04 747C1610.71 719.667 1633.37 688.333 1654.04 653C1675.37 617 1693.71 578.333 1709.04 537C1725.04 495.667 1737.04 453.667 1745.04 411C1719.71 424.333 1696.71 439 1676.04 455C1656.04 470.333 1636.04 490.667 1616.04 516C1592.04 545.333 1573.04 569 1559.04 587C1545.04 605 1533.37 620.333 1524.04 633C1515.37 645.667 1508.04 657.667 1502.04 669C1496.71 679.667 1490.71 693 1484.04 709C1474.71 730.333 1463.71 758.667 1451.04 794C1439.04 828.667 1426.37 867.667 1413.04 911C1400.37 954.333 1387.37 1000.33 1374.04 1049C1361.37 1098.33 1349.04 1147.33 1337.04 1196C1329.71 1194.67 1323.37 1189.33 1318.04 1180C1312.71 1174 1308.71 1169.67 1306.04 1167C1304.04 1164.33 1301.37 1162.33 1298.04 1161ZM2516.3 156C2518.3 167.333 2519.63 175.333 2520.3 180C2521.63 184 2522.3 189.667 2522.3 197C2522.3 219 2517.3 239.667 2507.3 259C2497.96 277.667 2484.96 291 2468.3 299C2454.96 281 2438.63 265.667 2419.3 253C2399.96 239.667 2378.63 229 2355.3 221C2332.63 212.333 2308.96 206 2284.3 202C2259.63 198 2235.63 196 2212.3 196C2188.96 196 2166.96 198 2146.3 202C2126.3 205.333 2108.3 210.333 2092.3 217C2076.96 223 2064.63 230.667 2055.3 240C2046.63 249.333 2042.3 260 2042.3 272C2044.3 286.667 2053.3 301.667 2069.3 317C2085.3 331.667 2104.96 346.333 2128.3 361C2151.63 375 2177.3 389 2205.3 403C2233.96 417 2261.96 430.333 2289.3 443C2323.3 459 2352.63 474 2377.3 488C2401.96 501.333 2422.3 516.333 2438.3 533C2454.3 549 2466.3 567.333 2474.3 588C2482.3 608.667 2486.3 633.667 2486.3 663C2486.3 697 2480.63 729 2469.3 759C2457.96 788.333 2441.3 814 2419.3 836C2397.96 858 2371.96 875 2341.3 887C2310.63 899.667 2276.3 906 2238.3 906C2200.96 906 2160.63 900.333 2117.3 889C2073.96 877.667 2033.3 862 1995.3 842C1957.96 822.667 1926.63 800.333 1901.3 775C1876.63 749 1864.3 721.667 1864.3 693C1864.3 679.667 1867.96 662.667 1875.3 642C1883.3 621.333 1897.3 599.667 1917.3 577C1919.3 597 1929.96 620.667 1949.3 648C1969.3 675.333 1998.96 700.667 2038.3 724C2074.96 745.333 2112.63 761 2151.3 771C2190.63 780.333 2227.3 785 2261.3 785C2298.63 785 2328.96 780.333 2352.3 771C2375.63 761.667 2393.96 750.667 2407.3 738C2420.63 724.667 2429.96 711.333 2435.3 698C2440.63 684.667 2443.63 674 2444.3 666C2443.63 652.667 2437.3 640 2425.3 628C2413.96 615.333 2398.3 603.333 2378.3 592C2358.96 580 2336.3 568 2310.3 556C2284.3 544 2257.3 532 2229.3 520C2187.3 501.333 2150.96 484 2120.3 468C2090.3 451.333 2065.3 434.667 2045.3 418C2025.96 400.667 2011.63 382.667 2002.3 364C1993.63 345.333 1989.3 324 1989.3 300C1989.3 262.667 2000.63 227.333 2023.3 194C2045.96 160.667 2078.63 135.333 2121.3 118C2142.63 108.667 2165.3 102 2189.3 97.9999C2213.96 94 2237.96 92 2261.3 92C2305.3 92 2348.3 98 2390.3 110C2432.3 122 2474.3 137.333 2516.3 156ZM2552.66 813C2552.66 789.667 2554.99 762.333 2559.66 731C2564.32 699 2570.99 665 2579.66 629C2588.99 593 2599.66 555.333 2611.66 516C2624.32 476.667 2638.32 437.333 2653.66 398C2666.99 362.667 2682.32 327 2699.66 291C2717.66 255 2736.99 219.667 2757.66 185C2778.32 150.333 2799.66 117.333 2821.66 86C2844.32 54.6667 2866.99 26 2889.66 -4.29153e-05C2900.32 -4.29153e-05 2911.66 1.33329 2923.66 3.99997C2936.32 6.66664 2948.32 10.3333 2959.66 14.9999C2971.66 19 2982.32 24 2991.66 30C3001.66 36 3009.66 42 3015.66 47.9999C2965.66 99.3333 2920.66 151.333 2880.66 204C2840.66 256 2808.99 305 2785.66 351C2772.99 376.333 2761.32 400 2750.66 422C2740.66 444 2731.32 466 2722.66 488C2713.99 509.333 2705.99 531 2698.66 553C2691.99 574.333 2685.66 597 2679.66 621C2807.66 457.667 2902.66 376 2964.66 376C2981.99 376 3000.66 381.667 3020.66 393C3040.66 404.333 3058.32 419.667 3073.66 439C3052.99 461.667 3031.66 489 3009.66 521C2987.66 553 2967.32 585.333 2948.66 618C2930.66 650 2915.66 680 2903.66 708C2892.32 735.333 2886.66 755.667 2886.66 769C2886.66 775.667 2887.66 780.333 2889.66 783C2891.66 785 2895.99 786 2902.66 786C2912.66 786 2920.66 784.667 2926.66 782C2932.66 779.333 2936.32 778 2937.66 778C2940.99 783.333 2942.99 787 2943.66 789C2944.32 791 2944.66 792.667 2944.66 794C2944.66 796.667 2940.66 800.667 2932.66 806C2924.66 810.667 2914.99 815.667 2903.66 821C2892.99 825.667 2882.32 830 2871.66 834C2860.99 838 2852.99 840 2847.66 840C2840.99 840 2834.32 838 2827.66 834C2820.99 830.667 2814.99 826 2809.66 820C2804.99 814 2800.99 807.333 2797.66 800C2794.99 792.667 2793.66 785 2793.66 777C2793.66 767 2796.32 752.333 2801.66 733C2807.66 713 2815.66 690 2825.66 664C2835.66 637.333 2847.66 608.333 2861.66 577C2875.66 545.667 2890.66 513.667 2906.66 481C2906.66 478.333 2905.32 477 2902.66 477C2900.66 477 2895.32 479.667 2886.66 485C2878.66 490.333 2870.99 495.667 2863.66 501C2839.66 519 2815.32 541.333 2790.66 568C2766.66 594 2742.99 622.667 2719.66 654C2696.99 685.333 2675.32 718.667 2654.66 754C2634.66 788.667 2617.32 823.667 2602.66 859C2600.66 863.667 2597.66 868 2593.66 872C2589.66 876 2586.32 878 2583.66 878C2581.66 878 2578.66 875.667 2574.66 871C2571.32 866.333 2567.99 860.333 2564.66 853C2561.99 846.333 2559.32 839.333 2556.66 832C2553.99 824.667 2552.66 818.333 2552.66 813ZM3415.26 426C3421.92 426 3429.59 427.333 3438.26 430C3447.59 432 3455.92 435 3463.26 439C3470.59 442.333 3476.59 446 3481.26 450C3486.59 454 3489.26 457.667 3489.26 461C3475.92 489 3463.59 517.333 3452.26 546C3440.92 574 3431.26 601 3423.26 627C3415.26 653 3408.92 677.333 3404.26 700C3400.26 722.667 3398.26 742.333 3398.26 759C3398.26 777.667 3400.26 793.333 3404.26 806C3408.26 818 3414.92 826.667 3424.26 832C3416.26 837.333 3405.92 841.667 3393.26 845C3380.59 848.333 3369.26 850 3359.26 850C3323.26 850 3305.26 825.333 3305.26 776C3305.26 738 3317.92 686 3343.26 620C3329.92 650.667 3314.59 679.667 3297.26 707C3279.92 733.667 3262.26 757.333 3244.26 778C3226.26 798.667 3207.92 815.667 3189.26 829C3171.26 841.667 3154.59 849.333 3139.26 852C3114.59 850.667 3094.59 839 3079.26 817C3063.92 794.333 3056.26 765.667 3056.26 731C3056.26 693.667 3064.26 654.333 3080.26 613C3096.26 571.667 3116.59 533.333 3141.26 498C3166.59 462.667 3193.92 433.333 3223.26 410C3252.59 386 3280.92 373.333 3308.26 372C3314.92 374 3322.26 378 3330.26 384C3338.92 390 3346.92 397 3354.26 405C3362.26 413 3368.92 421.333 3374.26 430C3379.59 438 3382.59 445 3383.26 451C3356.59 455 3328.92 468 3300.26 490C3272.26 512 3246.59 538.667 3223.26 570C3200.59 600.667 3181.92 633.667 3167.26 669C3152.59 704.333 3145.26 737.333 3145.26 768C3145.26 780.667 3149.92 788.667 3159.26 792C3178.59 788 3200.92 771.667 3226.26 743C3251.59 713.667 3282.26 668.667 3318.26 608C3324.92 596 3332.26 582.667 3340.26 568C3348.92 553.333 3357.59 538 3366.26 522C3374.92 506 3383.26 490 3391.26 474C3399.92 457.333 3407.92 441.333 3415.26 426ZM3515.98 810C3519.32 790.667 3524.98 765.333 3532.98 734C3541.65 702 3551.65 668.333 3562.98 633C3574.32 597 3586.32 561 3598.98 525C3611.65 489 3623.98 456.667 3635.98 428C3644.65 407.333 3652.32 391.333 3658.98 380C3665.65 368 3672.98 358 3680.98 350C3690.32 351.333 3699.98 353.667 3709.98 357C3719.98 360.333 3729.65 364.333 3738.98 369C3748.32 373.667 3756.65 378.667 3763.98 384C3771.32 388.667 3776.98 393.333 3780.98 398C3762.98 419.333 3746.98 443.667 3732.98 471C3719.65 498.333 3705.98 533.333 3691.98 576C3727.98 544 3759.65 513.333 3786.98 484C3814.98 454.667 3840.98 422 3864.98 386C3868.98 382.667 3875.98 381 3885.98 381C3895.32 381 3904.32 382.667 3912.98 386C3921.65 388.667 3927.65 392.667 3930.98 398C3918.98 430 3912.98 461.667 3912.98 493C3912.98 522.333 3917.32 544.333 3925.98 559C3925.32 563 3920.65 570.667 3911.98 582C3903.98 593.333 3894.98 604 3884.98 614C3866.98 604.667 3850.98 592 3836.98 576C3822.98 559.333 3812.65 541.333 3805.98 522C3774.65 544 3747.98 565.667 3725.98 587C3703.98 607.667 3684.98 631 3668.98 657C3653.65 682.333 3640.32 711.667 3628.98 745C3618.32 778.333 3607.98 818 3597.98 864C3591.98 863.333 3584.65 861 3575.98 857C3567.98 853.667 3559.65 849.333 3550.98 844C3542.98 838.667 3535.65 833 3528.98 827C3522.32 821 3517.98 815.333 3515.98 810ZM4301.3 416C4298.64 457.333 4291.3 493 4279.3 523C4267.3 552.333 4249.97 578.333 4227.3 601C4205.3 623 4178.3 643 4146.3 661C4114.3 679 4076.97 696.333 4034.3 713C4034.3 717 4033.97 721.333 4033.3 726C4033.3 730 4033.3 734.333 4033.3 739C4033.3 747.667 4033.97 756.667 4035.3 766C4036.64 775.333 4038.97 784 4042.3 792C4045.64 800 4050.3 806.667 4056.3 812C4062.3 816.667 4069.97 819 4079.3 819C4097.3 819 4114.97 815 4132.3 807C4149.64 799 4165.97 789.333 4181.3 778C4197.3 766 4211.97 753.333 4225.3 740C4239.3 726 4251.64 713.333 4262.3 702C4268.97 708 4274.64 713.667 4279.3 719C4249.3 759 4216.3 792.333 4180.3 819C4144.97 845 4111.3 861.667 4079.3 869C4033.3 863.667 3997.3 847 3971.3 819C3945.97 790.333 3933.3 756 3933.3 716C3933.3 688.667 3936.97 661 3944.3 633C3952.3 604.333 3962.97 577 3976.3 551C3990.3 524.333 4006.3 499.333 4024.3 476C4042.97 452.667 4062.64 432.333 4083.3 415C4104.64 397.667 4126.3 384 4148.3 374C4170.97 364 4193.3 359 4215.3 359C4245.97 363 4274.64 382 4301.3 416ZM4232.3 449C4214.3 451.667 4195.64 459 4176.3 471C4156.97 483 4138.64 499 4121.3 519C4104.64 539 4089.3 562.333 4075.3 589C4061.3 615.667 4050.3 644.333 4042.3 675C4095.64 648.333 4139.97 615.667 4175.3 577C4210.64 537.667 4229.64 495 4232.3 449Z" fill="url(#paint0_linear_124_2)"/>
<defs>
<linearGradient id="paint0_linear_124_2" x1="192.5" y1="962" x2="1670" y2="177.5" gradientUnits="userSpaceOnUse">
<stop stop-color="#196634"/>
<stop offset="1" stop-color="#62C75E"/>
</linearGradient>
</defs>
</svg>
